# Blender v2.79 (sub 7) OBJ File: ''
# www.blender.org
mtllib SoakingTrough.mtl
o Side3
v 0.937500 0.000000 1.000000
v 0.937500 0.000000 0.937500
v 0.937500 0.937500 0.937500
v 0.937500 0.937500 1.000000
v 0.062500 0.000000 0.937500
v 0.062500 0.000000 1.000000
v 0.062500 0.937500 1.000000
v 0.062500 0.937500 0.937500
vt 0.531250 0.031250
vt 0.546875 0.031250
vt 0.546875 0.500000
vt 0.531250 0.500000
vt 0.765625 0.031250
vt 0.781250 0.031250
vt 0.781250 0.500000
vt 0.765625 0.500000
vt 0.546875 0.937500
vt 0.531250 0.937500
vt 0.546875 0.500000
vt 0.562500 0.500000
vt 0.562500 0.937500
vt 0.546875 0.937500
vt 0.312500 0.031250
vt 0.312500 0.500000
vn 1.0000 0.0000 0.0000
vn -1.0000 -0.0000 0.0000
vn 0.0000 1.0000 0.0000
vn 0.0000 -1.0000 0.0000
vn 0.0000 0.0000 1.0000
vn 0.0000 0.0000 -1.0000
usemtl None
s off
f 1/1/1 2/2/1 3/3/1 4/4/1
f 5/5/2 6/6/2 7/7/2 8/8/2
f 4/4/3 3/3/3 8/9/3 7/10/3
f 6/11/4 5/12/4 2/13/4 1/14/4
f 6/15/5 1/1/5 4/4/5 7/16/5
f 2/2/6 5/5/6 8/8/6 3/3/6
o Bottom
v 0.937500 0.000000 0.937500
v 0.937500 0.000000 0.062500
v 0.937500 0.125000 0.062500
v 0.937500 0.125000 0.937500
v 0.062500 0.000000 0.062500
v 0.062500 0.000000 0.937500
v 0.062500 0.125000 0.937500
v 0.062500 0.125000 0.062500
vt 0.234375 0.468750
vt 0.453125 0.468750
vt 0.453125 0.531250
vt 0.234375 0.531250
vt 0.671875 0.468750
vt 0.890625 0.468750
vt 0.890625 0.531250
vt 0.671875 0.531250
vt 0.453125 0.968750
vt 0.234375 0.968750
vt 0.453125 0.531250
vt 0.671875 0.531250
vt 0.671875 0.968750
vt 0.453125 0.968750
vt 0.015625 0.468750
vt 0.015625 0.531250
vn 1.0000 0.0000 0.0000
vn -1.0000 0.0000 0.0000
vn 0.0000 1.0000 0.0000
vn 0.0000 -1.0000 0.0000
vn 0.0000 0.0000 1.0000
vn 0.0000 0.0000 -1.0000
usemtl None
s off
f 9/17/7 10/18/7 11/19/7 12/20/7
f 13/21/8 14/22/8 15/23/8 16/24/8
f 12/20/9 11/19/9 16/25/9 15/26/9
f 14/27/10 13/28/10 10/29/10 9/30/10
f 14/31/11 9/17/11 12/20/11 15/32/11
f 10/18/12 13/21/12 16/24/12 11/19/12
o Side4
v 0.937500 0.000000 0.062500
v 0.937500 0.000000 0.000000
v 0.937500 0.937500 0.000000
v 0.937500 0.937500 0.062500
v 0.062500 0.000000 0.000000
v 0.062500 0.000000 0.062500
v 0.062500 0.937500 0.062500
v 0.062500 0.937500 0.000000
vt 0.265625 0.031250
vt 0.281250 0.031250
vt 0.281250 0.500000
vt 0.265625 0.500000
vt 0.500000 0.031250
vt 0.515625 0.031250
vt 0.515625 0.500000
vt 0.500000 0.500000
vt 0.281250 0.937500
vt 0.265625 0.937500
vt 0.281250 0.500000
vt 0.296875 0.500000
vt 0.296875 0.937500
vt 0.281250 0.937500
vt 0.046875 0.031250
vt 0.046875 0.500000
vn 1.0000 0.0000 0.0000
vn -1.0000 -0.0000 0.0000
vn 0.0000 1.0000 0.0000
vn 0.0000 -1.0000 0.0000
vn 0.0000 0.0000 1.0000
vn 0.0000 0.0000 -1.0000
usemtl None
s off
f 17/33/13 18/34/13 19/35/13 20/36/13
f 21/37/14 22/38/14 23/39/14 24/40/14
f 20/36/15 19/35/15 24/41/15 23/42/15
f 22/43/16 21/44/16 18/45/16 17/46/16
f 22/47/17 17/33/17 20/36/17 23/48/17
f 18/34/18 21/37/18 24/40/18 19/35/18
o Side2
v 0.062500 0.000000 1.000000
v 0.062500 0.000000 0.000000
v 0.062500 0.937500 0.000000
v 0.062500 0.937500 1.000000
v -0.000000 0.000000 0.000000
v -0.000000 0.000000 1.000000
v -0.000000 0.937500 1.000000
v -0.000000 0.937500 0.000000
vt 0.015625 0.031250
vt 0.265625 0.031250
vt 0.265625 0.500000
vt 0.015625 0.500000
vt 0.281250 0.031250
vt 0.531250 0.031250
vt 0.531250 0.500000
vt 0.281250 0.500000
vt 0.265625 0.531250
vt 0.015625 0.531250
vt 0.265625 0.500000
vt 0.515625 0.500000
vt 0.515625 0.531250
vt 0.265625 0.531250
vt 0.000000 0.031250
vt 0.000000 0.500000
vn 1.0000 0.0000 0.0000
vn -1.0000 -0.0000 0.0000
vn 0.0000 1.0000 0.0000
vn 0.0000 -1.0000 0.0000
vn 0.0000 0.0000 1.0000
vn 0.0000 0.0000 -1.0000
usemtl None
s off
f 25/49/19 26/50/19 27/51/19 28/52/19
f 29/53/20 30/54/20 31/55/20 32/56/20
f 28/52/21 27/51/21 32/57/21 31/58/21
f 30/59/22 29/60/22 26/61/22 25/62/22
f 30/63/23 25/49/23 28/52/23 31/64/23
f 26/50/24 29/53/24 32/56/24 27/51/24
o Side1
v 1.000000 0.000000 1.000000
v 1.000000 0.000000 0.000000
v 1.000000 0.937500 0.000000
v 1.000000 0.937500 1.000000
v 0.937500 0.000000 0.000000
v 0.937500 0.000000 1.000000
v 0.937500 0.937500 1.000000
v 0.937500 0.937500 0.000000
vt 0.281250 0.031250
vt 0.531250 0.031250
vt 0.531250 0.500000
vt 0.281250 0.500000
vt 0.546875 0.031250
vt 0.796875 0.031250
vt 0.796875 0.500000
vt 0.546875 0.500000
vt 0.531250 0.531250
vt 0.281250 0.531250
vt 0.531250 0.500000
vt 0.781250 0.500000
vt 0.781250 0.531250
vt 0.531250 0.531250
vt 0.265625 0.031250
vt 0.265625 0.500000
vn 1.0000 0.0000 0.0000
vn -1.0000 -0.0000 0.0000
vn 0.0000 1.0000 0.0000
vn 0.0000 -1.0000 0.0000
vn 0.0000 0.0000 1.0000
vn 0.0000 0.0000 -1.0000
usemtl None
s off
f 33/65/25 34/66/25 35/67/25 36/68/25
f 37/69/26 38/70/26 39/71/26 40/72/26
f 36/68/27 35/67/27 40/73/27 39/74/27
f 38/75/28 37/76/28 34/77/28 33/78/28
f 38/79/29 33/65/29 36/68/29 39/80/29
f 34/66/30 37/69/30 40/72/30 35/67/30
